<svg width="120" height="120" viewBox="0 0 120 120" fill="none" xmlns="http://www.w3.org/2000/svg">
  <circle cx="60" cy="60" r="58" fill="#0070f3" stroke="#facc15" stroke-width="4"/>
  <g>
    <ellipse cx="60" cy="60" rx="32" ry="28" fill="#fff" stroke="#1f2937" stroke-width="3"/>
    <ellipse cx="60" cy="60" rx="18" ry="15" fill="#facc15" stroke="#1f2937" stroke-width="2"/>
    <path d="M48 60 Q50 50 60 50 Q70 50 72 60" stroke="#1f2937" stroke-width="2" fill="none"/>
    <ellipse cx="54" cy="62" rx="2.5" ry="3.5" fill="#1f2937"/>
    <ellipse cx="66" cy="62" rx="2.5" ry="3.5" fill="#1f2937"/>
    <path d="M54 70 Q60 75 66 70" stroke="#1f2937" stroke-width="2" fill="none"/>
  </g>
  <g>
    <path d="M60 30 Q80 40 80 60 Q80 80 60 90 Q40 80 40 60 Q40 40 60 30 Z" fill="#0070f3" stroke="#1f2937" stroke-width="3"/>
    <path d="M60 30 Q62 38 70 40 Q78 42 80 60" stroke="#facc15" stroke-width="2" fill="none"/>
    <path d="M60 30 Q58 38 50 40 Q42 42 40 60" stroke="#facc15" stroke-width="2" fill="none"/>
  </g>
  <g>
    <rect x="48" y="85" width="24" height="10" rx="5" fill="#facc15" stroke="#1f2937" stroke-width="2"/>
    <rect x="52" y="95" width="16" height="8" rx="4" fill="#0070f3" stroke="#1f2937" stroke-width="2"/>
  </g>
</svg>